<?xml version="1.0" encoding="UTF-8"?>
<!DOCTYPE score-partwise PUBLIC "-//Recordare//DTD MusicXML 2.0 Partwise//EN"
  "http://www.musicxml.org/dtds/partwise.dtd">
<score-partwise version="2.0"><work><work-title>1-09 Atelier Rorona</work-title></work><identification><creator type="composer"/><creator type="lyricist"/><rights/><encoding><software>Noteflight version 0.4</software><encoding-date>2025-08-02</encoding-date><supports attribute="new-system" element="print" type="no" value="no"/><supports attribute="new-page" element="print" type="no" value="no"/></encoding></identification><defaults><scaling><millimeters>2.1166666679999997</millimeters><tenths>10</tenths></scaling><page-layout><page-height>1320</page-height><page-width>1020</page-width><page-margins type="both"><left-margin>59.583333333333336</left-margin><right-margin>56.66666666666667</right-margin><top-margin>96.66666666666667</top-margin><bottom-margin>80</bottom-margin></page-margins></page-layout><system-layout><system-margins><left-margin>59.583333333333336</left-margin><right-margin>26.666666666666668</right-margin></system-margins><system-distance>92.5</system-distance><top-system-distance>145.83333333333334</top-system-distance></system-layout><staff-layout><staff-distance>55</staff-distance></staff-layout></defaults><credit page="1"><credit-type>title</credit-type><credit-words font-size="24" default-x="510" default-y="1210" justify="right" valign="top">1-09 Atelier Rorona</credit-words></credit><part-list><score-part id="P1"><part-name>Flute</part-name><part-abbreviation/><score-instrument id="P1I1"><instrument-name>Flute</instrument-name><instrument-sound>keyboard.piano</instrument-sound></score-instrument><midi-instrument id="P1I1"><midi-channel>1</midi-channel><midi-program>1</midi-program></midi-instrument></score-part></part-list><part id="P1"><measure number="1"><attributes><divisions>64</divisions><key><fifths>1</fifths><mode>major</mode></key><time print-object="yes"><beats>4</beats><beat-type>4</beat-type></time><clef number="1"><sign>G</sign><line>2</line></clef></attributes><direction placement="above"><direction-type><metronome print-object="no"><beat-unit>quarter</beat-unit><per-minute>113</per-minute></metronome></direction-type><sound tempo="113"/></direction><direction placement="above"><direction-type><metronome print-object="yes"><beat-unit>quarter</beat-unit><per-minute>113</per-minute></metronome></direction-type><sound tempo="113"/></direction><note><pitch><step>B</step><octave>5</octave></pitch><duration>64</duration><voice>1</voice><type>quarter</type></note><note><pitch><step>C</step><octave>6</octave></pitch><duration>16</duration><voice>1</voice><type>16th</type><beam number="1">begin</beam></note><note><rest/><duration>16</duration><voice>1</voice><type>16th</type><beam number="1">continue</beam></note><note><pitch><step>B</step><octave>5</octave></pitch><duration>16</duration><voice>1</voice><type>16th</type><beam number="1">end</beam></note><note><rest/><duration>16</duration><voice>1</voice><type>16th</type></note><note><pitch><step>D</step><octave>6</octave></pitch><duration>64</duration><voice>1</voice><type>quarter</type></note><note><pitch><step>C</step><octave>6</octave></pitch><duration>16</duration><voice>1</voice><type>16th</type><beam number="1">begin</beam></note><note><rest/><duration>16</duration><voice>1</voice><type>16th</type><beam number="1">continue</beam></note><note><pitch><step>B</step><octave>5</octave></pitch><duration>16</duration><voice>1</voice><type>16th</type><beam number="1">end</beam></note><note><rest/><duration>16</duration><voice>1</voice><type>16th</type></note></measure><measure number="2"><attributes/><note><pitch><step>A</step><octave>5</octave></pitch><duration>64</duration><voice>1</voice><type>quarter</type></note><note><pitch><step>B</step><octave>5</octave></pitch><duration>48</duration><voice>1</voice><type>eighth</type><dot/><beam number="1">begin</beam></note><note><pitch><step>A</step><octave>5</octave></pitch><duration>16</duration><voice>1</voice><type>16th</type><beam number="1">end</beam></note><note><pitch><step>G</step><octave>5</octave></pitch><duration>64</duration><voice>1</voice><type>quarter</type></note><note><pitch><step>D</step><octave>5</octave></pitch><duration>64</duration><voice>1</voice><type>quarter</type></note></measure><measure number="3"><attributes/><note><pitch><step>B</step><octave>5</octave></pitch><duration>64</duration><voice>1</voice><type>quarter</type></note><note><pitch><step>C</step><octave>6</octave></pitch><duration>16</duration><voice>1</voice><type>16th</type><beam number="1">begin</beam></note><note><rest/><duration>16</duration><voice>1</voice><type>16th</type><beam number="1">continue</beam></note><note><pitch><step>B</step><octave>5</octave></pitch><duration>16</duration><voice>1</voice><type>16th</type><beam number="1">end</beam></note><note><rest/><duration>16</duration><voice>1</voice><type>16th</type></note><note><pitch><step>D</step><octave>6</octave></pitch><duration>64</duration><voice>1</voice><type>quarter</type></note><note><pitch><step>C</step><octave>6</octave></pitch><duration>16</duration><voice>1</voice><type>16th</type><beam number="1">begin</beam></note><note><rest/><duration>16</duration><voice>1</voice><type>16th</type><beam number="1">continue</beam></note><note><pitch><step>B</step><octave>5</octave></pitch><duration>16</duration><voice>1</voice><type>16th</type><beam number="1">end</beam></note><note><rest/><duration>16</duration><voice>1</voice><type>16th</type></note></measure><measure number="4"><attributes/><note><pitch><step>A</step><octave>5</octave></pitch><duration>64</duration><voice>1</voice><type>quarter</type></note><note><pitch><step>B</step><octave>5</octave></pitch><duration>48</duration><voice>1</voice><type>eighth</type><dot/><beam number="1">begin</beam></note><note><pitch><step>A</step><octave>5</octave></pitch><duration>16</duration><voice>1</voice><type>16th</type><beam number="1">end</beam></note><note><pitch><step>G</step><octave>5</octave></pitch><duration>128</duration><voice>1</voice><type>half</type></note></measure><measure number="5"><attributes/><note><pitch><step>G</step><octave>4</octave></pitch><duration>32</duration><voice>1</voice><type>eighth</type><beam number="1">begin</beam></note><note><pitch><step>B</step><octave>4</octave></pitch><duration>16</duration><voice>1</voice><type>16th</type><beam number="1">continue</beam></note><note><pitch><step>D</step><octave>5</octave></pitch><duration>16</duration><voice>1</voice><type>16th</type><beam number="1">end</beam></note><note><pitch><step>G</step><octave>5</octave></pitch><duration>16</duration><voice>1</voice><type>16th</type><beam number="1">begin</beam></note><note><rest/><duration>16</duration><voice>1</voice><type>16th</type><beam number="1">continue</beam></note><note><pitch><step>D</step><octave>5</octave></pitch><duration>16</duration><voice>1</voice><type>16th</type><beam number="1">end</beam></note><note><rest/><duration>16</duration><voice>1</voice><type>16th</type></note><note><pitch><step>E</step><octave>5</octave></pitch><duration>16</duration><voice>1</voice><type>16th</type><beam number="1">begin</beam></note><note><rest/><duration>16</duration><voice>1</voice><type>16th</type><beam number="1">continue</beam></note><note><pitch><step>C</step><octave>5</octave></pitch><duration>16</duration><voice>1</voice><type>16th</type><beam number="1">end</beam></note><note><rest/><duration>16</duration><voice>1</voice><type>16th</type></note><note><pitch><step>D</step><octave>5</octave></pitch><duration>16</duration><voice>1</voice><type>16th</type><beam number="1">begin</beam></note><note><rest/><duration>16</duration><voice>1</voice><type>16th</type><beam number="1">continue</beam></note><note><pitch><step>B</step><octave>4</octave></pitch><duration>16</duration><voice>1</voice><type>16th</type><beam number="1">end</beam></note><note><rest/><duration>16</duration><voice>1</voice><type>16th</type></note></measure><measure number="6"><attributes/><note><pitch><step>G</step><octave>4</octave></pitch><duration>32</duration><voice>1</voice><type>eighth</type><beam number="1">begin</beam></note><note><pitch><step>B</step><octave>4</octave></pitch><duration>16</duration><voice>1</voice><type>16th</type><beam number="1">continue</beam></note><note><pitch><step>D</step><octave>5</octave></pitch><duration>16</duration><voice>1</voice><type>16th</type><beam number="1">end</beam></note><note><pitch><step>G</step><octave>5</octave></pitch><duration>16</duration><voice>1</voice><type>16th</type><beam number="1">begin</beam></note><note><rest/><duration>16</duration><voice>1</voice><type>16th</type><beam number="1">continue</beam></note><note><pitch><step>D</step><octave>5</octave></pitch><duration>16</duration><voice>1</voice><type>16th</type><beam number="1">end</beam></note><note><rest/><duration>16</duration><voice>1</voice><type>16th</type></note><note><pitch><step>E</step><octave>5</octave></pitch><duration>16</duration><voice>1</voice><type>16th</type><beam number="1">begin</beam></note><note><rest/><duration>16</duration><voice>1</voice><type>16th</type><beam number="1">continue</beam></note><note><pitch><step>D</step><octave>5</octave></pitch><duration>32</duration><voice>1</voice><type>eighth</type><beam number="1">end</beam></note><note><pitch><step>G</step><octave>5</octave></pitch><duration>16</duration><voice>1</voice><type>16th</type><beam number="1">begin</beam></note><note><rest/><duration>16</duration><voice>1</voice><type>16th</type><beam number="1">continue</beam></note><note><pitch><step>F</step><alter>1</alter><octave>5</octave></pitch><duration>16</duration><voice>1</voice><type>16th</type><beam number="1">end</beam></note><note><rest/><duration>16</duration><voice>1</voice><type>16th</type></note></measure><measure number="7"><attributes/><note><pitch><step>G</step><octave>5</octave></pitch><duration>64</duration><tie type="start"/><voice>1</voice><type>quarter</type><notations><tied type="start"/></notations></note><note><pitch><step>G</step><octave>5</octave></pitch><duration>16</duration><tie type="stop"/><voice>1</voice><type>16th</type><beam number="1">begin</beam><notations><tied type="stop"/></notations></note><note><rest/><duration>16</duration><voice>1</voice><type>16th</type><beam number="1">continue</beam></note><note><pitch><step>B</step><octave>5</octave></pitch><duration>32</duration><voice>1</voice><type>eighth</type><beam number="1">end</beam></note><note><pitch><step>A</step><octave>5</octave></pitch><duration>64</duration><voice>1</voice><type>quarter</type></note><note><rest/><duration>32</duration><voice>1</voice><type>eighth</type></note><note><pitch><step>D</step><octave>5</octave></pitch><duration>32</duration><voice>1</voice><type>eighth</type></note></measure><measure number="8"><attributes/><note><pitch><step>G</step><octave>5</octave></pitch><duration>16</duration><voice>1</voice><type>16th</type><beam number="1">begin</beam></note><note><rest/><duration>16</duration><voice>1</voice><type>16th</type><beam number="1">continue</beam></note><note><pitch><step>A</step><octave>5</octave></pitch><duration>16</duration><voice>1</voice><type>16th</type><beam number="1">end</beam></note><note><rest/><duration>16</duration><voice>1</voice><type>16th</type></note><note><pitch><step>B</step><octave>5</octave></pitch><duration>16</duration><voice>1</voice><type>16th</type></note><note><rest/><duration>16</duration><voice>1</voice><type>16th</type></note><note><pitch><step>A</step><octave>5</octave></pitch><duration>96</duration><voice>1</voice><type>quarter</type><dot/></note><note><rest/><duration>32</duration><voice>1</voice><type>eighth</type></note><note><pitch><step>B</step><octave>4</octave></pitch><duration>32</duration><voice>1</voice><type>eighth</type></note></measure><measure number="9"><attributes/><note><pitch><step>E</step><octave>5</octave></pitch><duration>64</duration><tie type="start"/><voice>1</voice><type>quarter</type><notations><tied type="start"/></notations></note><note><pitch><step>E</step><octave>5</octave></pitch><duration>16</duration><tie type="stop"/><voice>1</voice><type>16th</type><beam number="1">begin</beam><notations><tied type="stop"/></notations></note><note><rest/><duration>16</duration><voice>1</voice><type>16th</type><beam number="1">continue</beam></note><note><pitch><step>G</step><octave>5</octave></pitch><duration>16</duration><voice>1</voice><type>16th</type><beam number="1">end</beam></note><note><rest/><duration>16</duration><voice>1</voice><type>16th</type></note><note><pitch><step>F</step><alter>1</alter><octave>5</octave></pitch><duration>64</duration><voice>1</voice><type>quarter</type></note><note><rest/><duration>32</duration><voice>1</voice><type>eighth</type></note><note><pitch><step>A</step><octave>5</octave></pitch><duration>32</duration><voice>1</voice><type>eighth</type></note></measure><measure number="10"><attributes/><note><pitch><step>G</step><octave>5</octave></pitch><duration>48</duration><voice>1</voice><type>eighth</type><dot/><beam number="1">begin</beam></note><note><pitch><step>F</step><alter>1</alter><octave>5</octave></pitch><duration>16</duration><voice>1</voice><type>16th</type><beam number="1">end</beam></note><note><rest/><duration>32</duration><voice>1</voice><type>eighth</type></note><note><pitch><step>E</step><octave>5</octave></pitch><duration>128</duration><tie type="start"/><voice>1</voice><type>half</type><notations><tied type="start"/></notations></note><note><pitch><step>E</step><octave>5</octave></pitch><duration>32</duration><tie type="stop"/><voice>1</voice><type>eighth</type><notations><tied type="stop"/></notations></note></measure><measure number="11"><attributes/><note><rest/><duration>64</duration><voice>1</voice><type>quarter</type></note><note><pitch><step>E</step><octave>5</octave></pitch><duration>32</duration><voice>1</voice><type>eighth</type><beam number="1">begin</beam></note><note><pitch><step>D</step><octave>5</octave></pitch><duration>32</duration><voice>1</voice><type>eighth</type><beam number="1">end</beam></note><note><pitch><step>E</step><octave>5</octave></pitch><duration>16</duration><voice>1</voice><type>16th</type></note><note><rest/><duration>32</duration><voice>1</voice><type>eighth</type></note><note><rest/><duration>16</duration><voice>1</voice><type>16th</type></note><note><pitch><step>A</step><octave>5</octave></pitch><duration>64</duration><voice>1</voice><type>quarter</type></note></measure><measure number="12"><attributes/><note><pitch><step>G</step><octave>5</octave></pitch><duration>16</duration><voice>1</voice><type>16th</type></note><note><rest/><duration>32</duration><voice>1</voice><type>eighth</type></note><note><rest/><duration>16</duration><voice>1</voice><type>16th</type></note><note><pitch><step>G</step><octave>5</octave></pitch><duration>16</duration><voice>1</voice><type>16th</type></note><note><rest/><duration>32</duration><voice>1</voice><type>eighth</type></note><note><rest/><duration>16</duration><voice>1</voice><type>16th</type></note><note><pitch><step>E</step><octave>5</octave></pitch><duration>16</duration><voice>1</voice><type>16th</type><beam number="1">begin</beam></note><note><rest/><duration>16</duration><voice>1</voice><type>16th</type><beam number="1">continue</beam></note><note><pitch><step>C</step><octave>5</octave></pitch><duration>32</duration><voice>1</voice><type>eighth</type><beam number="1">end</beam></note><note><pitch><step>E</step><octave>5</octave></pitch><duration>16</duration><voice>1</voice><type>16th</type><beam number="1">begin</beam></note><note><rest/><duration>16</duration><voice>1</voice><type>16th</type><beam number="1">continue</beam></note><note><pitch><step>G</step><octave>5</octave></pitch><duration>16</duration><voice>1</voice><type>16th</type><beam number="1">end</beam></note><note><rest/><duration>16</duration><voice>1</voice><type>16th</type></note></measure><measure number="13"><attributes/><note><pitch><step>B</step><octave>5</octave></pitch><duration>128</duration><tie type="start"/><voice>1</voice><type>half</type><notations><tied type="start"/></notations></note><note><pitch><step>B</step><octave>5</octave></pitch><duration>32</duration><tie type="stop"/><voice>1</voice><type>eighth</type><beam number="1">begin</beam><notations><tied type="stop"/></notations></note><note><pitch><step>C</step><octave>6</octave></pitch><duration>32</duration><voice>1</voice><type>eighth</type><beam number="1">end</beam></note><note><pitch><step>G</step><octave>5</octave></pitch><duration>16</duration><voice>1</voice><type>16th</type><beam number="1">begin</beam></note><note><rest/><duration>16</duration><voice>1</voice><type>16th</type><beam number="1">continue</beam></note><note><pitch><step>A</step><octave>5</octave></pitch><duration>32</duration><tie type="start"/><voice>1</voice><type>eighth</type><beam number="1">end</beam><notations><tied type="start"/></notations></note></measure><measure number="14"><attributes/><note><pitch><step>A</step><octave>5</octave></pitch><duration>128</duration><tie type="stop"/><voice>1</voice><type>half</type><notations><tied type="stop"/></notations></note><note><rest/><duration>32</duration><voice>1</voice><type>eighth</type></note><note><pitch><step>D</step><octave>5</octave></pitch><duration>32</duration><voice>1</voice><type>eighth</type></note><note><pitch><step>G</step><octave>5</octave></pitch><duration>16</duration><voice>1</voice><type>16th</type><beam number="1">begin</beam></note><note><rest/><duration>16</duration><voice>1</voice><type>16th</type><beam number="1">continue</beam></note><note><pitch><step>F</step><alter>1</alter><octave>5</octave></pitch><duration>16</duration><voice>1</voice><type>16th</type><beam number="1">end</beam></note><note><rest/><duration>16</duration><voice>1</voice><type>16th</type></note></measure><measure number="15"><attributes/><note><pitch><step>G</step><octave>5</octave></pitch><duration>64</duration><voice>1</voice><type>quarter</type></note><note><rest/><duration>32</duration><voice>1</voice><type>eighth</type></note><note><pitch><step>B</step><octave>5</octave></pitch><duration>32</duration><voice>1</voice><type>eighth</type></note><note><pitch><step>A</step><octave>5</octave></pitch><duration>64</duration><voice>1</voice><type>quarter</type></note><note><rest/><duration>32</duration><voice>1</voice><type>eighth</type></note><note><pitch><step>D</step><octave>5</octave></pitch><duration>32</duration><voice>1</voice><type>eighth</type></note></measure><measure number="16"><attributes/><note><pitch><step>G</step><octave>5</octave></pitch><duration>16</duration><voice>1</voice><type>16th</type><beam number="1">begin</beam></note><note><rest/><duration>16</duration><voice>1</voice><type>16th</type><beam number="1">continue</beam></note><note><pitch><step>A</step><octave>5</octave></pitch><duration>16</duration><voice>1</voice><type>16th</type><beam number="1">end</beam></note><note><rest/><duration>16</duration><voice>1</voice><type>16th</type></note><note><pitch><step>B</step><octave>5</octave></pitch><duration>16</duration><voice>1</voice><type>16th</type></note><note><rest/><duration>16</duration><voice>1</voice><type>16th</type></note><note><pitch><step>A</step><octave>5</octave></pitch><duration>96</duration><voice>1</voice><type>quarter</type><dot/></note><note><rest/><duration>32</duration><voice>1</voice><type>eighth</type></note><note><pitch><step>B</step><octave>4</octave></pitch><duration>32</duration><voice>1</voice><type>eighth</type></note></measure><measure number="17"><attributes/><note><pitch><step>E</step><octave>5</octave></pitch><duration>64</duration><tie type="start"/><voice>1</voice><type>quarter</type><notations><tied type="start"/></notations></note><note><pitch><step>E</step><octave>5</octave></pitch><duration>16</duration><tie type="stop"/><voice>1</voice><type>16th</type><beam number="1">begin</beam><notations><tied type="stop"/></notations></note><note><rest/><duration>16</duration><voice>1</voice><type>16th</type><beam number="1">continue</beam></note><note><pitch><step>G</step><octave>5</octave></pitch><duration>16</duration><voice>1</voice><type>16th</type><beam number="1">end</beam></note><note><rest/><duration>16</duration><voice>1</voice><type>16th</type></note><note><pitch><step>F</step><alter>1</alter><octave>5</octave></pitch><duration>64</duration><tie type="start"/><voice>1</voice><type>quarter</type><notations><tied type="start"/></notations></note><note><pitch><step>F</step><alter>1</alter><octave>5</octave></pitch><duration>16</duration><tie type="stop"/><voice>1</voice><type>16th</type><beam number="1">begin</beam><notations><tied type="stop"/></notations></note><note><rest/><duration>16</duration><voice>1</voice><type>16th</type><beam number="1">continue</beam></note><note><pitch><step>A</step><octave>5</octave></pitch><duration>32</duration><voice>1</voice><type>eighth</type><beam number="1">end</beam></note></measure><measure number="18"><attributes/><note><pitch><step>G</step><octave>5</octave></pitch><duration>48</duration><voice>1</voice><type>eighth</type><dot/><beam number="1">begin</beam></note><note><pitch><step>F</step><alter>1</alter><octave>5</octave></pitch><duration>16</duration><voice>1</voice><type>16th</type><beam number="1">end</beam></note><note><rest/><duration>32</duration><voice>1</voice><type>eighth</type></note><note><pitch><step>E</step><octave>5</octave></pitch><duration>128</duration><tie type="start"/><voice>1</voice><type>half</type><notations><tied type="start"/></notations></note><note><pitch><step>E</step><octave>5</octave></pitch><duration>16</duration><tie type="stop"/><voice>1</voice><type>16th</type><notations><tied type="stop"/></notations></note><note><rest/><duration>16</duration><voice>1</voice><type>16th</type></note></measure><measure number="19"><attributes/><note><rest/><duration>64</duration><voice>1</voice><type>quarter</type></note><note><pitch><step>E</step><octave>5</octave></pitch><duration>32</duration><voice>1</voice><type>eighth</type><beam number="1">begin</beam></note><note><pitch><step>D</step><octave>5</octave></pitch><duration>32</duration><voice>1</voice><type>eighth</type><beam number="1">end</beam></note><note><pitch><step>E</step><octave>5</octave></pitch><duration>16</duration><voice>1</voice><type>16th</type></note><note><rest/><duration>32</duration><voice>1</voice><type>eighth</type></note><note><rest/><duration>16</duration><voice>1</voice><type>16th</type></note><note><pitch><step>A</step><octave>5</octave></pitch><duration>64</duration><voice>1</voice><type>quarter</type></note></measure><measure number="20"><attributes/><note><pitch><step>G</step><octave>5</octave></pitch><duration>16</duration><voice>1</voice><type>16th</type></note><note><rest/><duration>32</duration><voice>1</voice><type>eighth</type></note><note><rest/><duration>16</duration><voice>1</voice><type>16th</type></note><note><pitch><step>G</step><octave>5</octave></pitch><duration>16</duration><voice>1</voice><type>16th</type></note><note><rest/><duration>32</duration><voice>1</voice><type>eighth</type></note><note><rest/><duration>16</duration><voice>1</voice><type>16th</type></note><note><pitch><step>E</step><octave>5</octave></pitch><duration>16</duration><voice>1</voice><type>16th</type><beam number="1">begin</beam></note><note><rest/><duration>16</duration><voice>1</voice><type>16th</type><beam number="1">continue</beam></note><note><pitch><step>C</step><octave>5</octave></pitch><duration>32</duration><voice>1</voice><type>eighth</type><beam number="1">end</beam></note><note><pitch><step>E</step><octave>5</octave></pitch><duration>16</duration><voice>1</voice><type>16th</type><beam number="1">begin</beam></note><note><rest/><duration>16</duration><voice>1</voice><type>16th</type><beam number="1">continue</beam></note><note><pitch><step>G</step><octave>5</octave></pitch><duration>16</duration><voice>1</voice><type>16th</type><beam number="1">end</beam></note><note><rest/><duration>16</duration><voice>1</voice><type>16th</type></note></measure><measure number="21"><attributes/><note><pitch><step>B</step><octave>5</octave></pitch><duration>192</duration><voice>1</voice><type>half</type><dot/></note><note><pitch><step>C</step><octave>6</octave></pitch><duration>16</duration><voice>1</voice><type>16th</type><beam number="1">begin</beam></note><note><rest/><duration>16</duration><voice>1</voice><type>16th</type><beam number="1">continue</beam></note><note><pitch><step>A</step><octave>5</octave></pitch><duration>32</duration><tie type="start"/><voice>1</voice><type>eighth</type><beam number="1">end</beam><notations><tied type="start"/></notations></note></measure><measure number="22"><attributes/><note><pitch><step>A</step><octave>5</octave></pitch><duration>128</duration><tie type="start"/><tie type="stop"/><voice>1</voice><type>half</type><notations><tied type="start"/><tied type="stop"/></notations></note><note><pitch><step>A</step><octave>5</octave></pitch><duration>32</duration><tie type="stop"/><voice>1</voice><type>eighth</type><beam number="1">begin</beam><notations><tied type="stop"/></notations></note><note><pitch><step>F</step><alter>1</alter><octave>5</octave></pitch><duration>32</duration><voice>1</voice><type>eighth</type><beam number="1">end</beam></note><note><pitch><step>G</step><octave>5</octave></pitch><duration>32</duration><voice>1</voice><type>eighth</type><beam number="1">begin</beam></note><note><pitch><step>A</step><octave>5</octave></pitch><duration>32</duration><voice>1</voice><type>eighth</type><beam number="1">end</beam></note></measure><measure number="23"><attributes/><note><pitch><step>E</step><octave>5</octave></pitch><duration>32</duration><voice>1</voice><type>eighth</type></note><note><pitch><step>D</step><octave>5</octave></pitch><duration>64</duration><voice>1</voice><type>quarter</type></note><note><pitch><step>G</step><octave>5</octave></pitch><duration>64</duration><voice>1</voice><type>quarter</type></note><note><pitch><step>F</step><alter>1</alter><octave>5</octave></pitch><duration>64</duration><voice>1</voice><type>quarter</type></note><note><pitch><step>D</step><octave>5</octave></pitch><duration>32</duration><tie type="start"/><voice>1</voice><type>eighth</type><notations><tied type="start"/></notations></note></measure><measure number="24"><attributes/><note><pitch><step>D</step><octave>5</octave></pitch><duration>128</duration><tie type="stop"/><voice>1</voice><type>half</type><notations><tied type="stop"/></notations></note><note><rest/><duration>32</duration><voice>1</voice><type>eighth</type></note><note><pitch><step>B</step><octave>4</octave></pitch><duration>32</duration><voice>1</voice><type>eighth</type></note><note><pitch><step>C</step><octave>5</octave></pitch><duration>32</duration><voice>1</voice><type>eighth</type><beam number="1">begin</beam></note><note><pitch><step>D</step><octave>5</octave></pitch><duration>32</duration><voice>1</voice><type>eighth</type><beam number="1">end</beam></note></measure><measure number="25"><attributes/><note><pitch><step>E</step><octave>5</octave></pitch><duration>32</duration><voice>1</voice><type>eighth</type></note><note><pitch><step>D</step><octave>5</octave></pitch><duration>64</duration><voice>1</voice><type>quarter</type></note><note><pitch><step>G</step><octave>5</octave></pitch><duration>64</duration><voice>1</voice><type>quarter</type></note><note><pitch><step>A</step><octave>5</octave></pitch><duration>32</duration><voice>1</voice><type>eighth</type></note><note><pitch><step>G</step><octave>5</octave></pitch><duration>32</duration><voice>1</voice><type>eighth</type><beam number="1">begin</beam></note><note><pitch><step>D</step><octave>5</octave></pitch><duration>32</duration><tie type="start"/><voice>1</voice><type>eighth</type><beam number="1">end</beam><notations><tied type="start"/></notations></note></measure><measure number="26"><attributes/><note><pitch><step>D</step><octave>5</octave></pitch><duration>128</duration><tie type="stop"/><voice>1</voice><type>half</type><notations><tied type="stop"/></notations></note><note><rest/><duration>128</duration><voice>1</voice><type>half</type></note></measure><measure number="27"><attributes/><note><pitch><step>A</step><octave>4</octave></pitch><duration>64</duration><voice>1</voice><type>quarter</type></note><note><pitch><step>E</step><octave>5</octave></pitch><duration>32</duration><voice>1</voice><type>eighth</type></note><note><pitch><step>D</step><octave>5</octave></pitch><duration>128</duration><voice>1</voice><type>half</type></note><note><pitch><step>G</step><octave>5</octave></pitch><duration>32</duration><voice>1</voice><type>eighth</type></note></measure><measure number="28"><attributes/><note><pitch><step>F</step><alter>1</alter><octave>5</octave></pitch><duration>32</duration><voice>1</voice><type>eighth</type></note><note><pitch><step>G</step><octave>5</octave></pitch><duration>64</duration><voice>1</voice><type>quarter</type></note><note><pitch><step>A</step><octave>5</octave></pitch><duration>64</duration><voice>1</voice><type>quarter</type></note><note><pitch><step>F</step><alter>1</alter><octave>5</octave></pitch><duration>64</duration><voice>1</voice><type>quarter</type></note><note><pitch><step>D</step><octave>5</octave></pitch><duration>32</duration><voice>1</voice><type>eighth</type></note></measure><measure number="29"><attributes/><note><pitch><step>E</step><octave>5</octave></pitch><duration>192</duration><voice>1</voice><type>half</type><dot/></note><note><rest/><duration>32</duration><voice>1</voice><type>eighth</type></note><note><pitch><step>F</step><alter>1</alter><octave>5</octave></pitch><duration>32</duration><voice>1</voice><type>eighth</type></note></measure><measure number="30"><attributes/><note><pitch><step>G</step><octave>5</octave></pitch><duration>32</duration><voice>1</voice><type>eighth</type><beam number="1">begin</beam></note><note><pitch><step>F</step><alter>1</alter><octave>5</octave></pitch><duration>32</duration><voice>1</voice><type>eighth</type><beam number="1">end</beam></note><note><pitch><step>E</step><octave>5</octave></pitch><duration>16</duration><voice>1</voice><type>16th</type><beam number="1">begin</beam></note><note><rest/><duration>16</duration><voice>1</voice><type>16th</type><beam number="1">continue</beam></note><note><pitch><step>D</step><octave>5</octave></pitch><duration>16</duration><voice>1</voice><type>16th</type><beam number="1">end</beam></note><note><rest/><duration>16</duration><voice>1</voice><type>16th</type></note><note><pitch><step>A</step><octave>4</octave></pitch><duration>16</duration><voice>1</voice><type>16th</type><beam number="1">begin</beam></note><note><chord/><pitch><step>E</step><octave>5</octave></pitch><duration>16</duration><voice>1</voice><type>16th</type><beam number="1">begin</beam></note><note><rest/><duration>16</duration><voice>1</voice><type>16th</type><beam number="1">continue</beam></note><note><pitch><step>B</step><octave>4</octave></pitch><duration>32</duration><voice>1</voice><type>eighth</type><beam number="1">end</beam></note><note><pitch><step>C</step><octave>5</octave></pitch><duration>16</duration><voice>1</voice><type>16th</type><beam number="1">begin</beam></note><note><rest/><duration>16</duration><voice>1</voice><type>16th</type><beam number="1">continue</beam></note><note><pitch><step>D</step><octave>5</octave></pitch><duration>16</duration><voice>1</voice><type>16th</type><beam number="1">end</beam></note><note><rest/><duration>16</duration><voice>1</voice><type>16th</type></note></measure><measure number="31"><attributes/><note><pitch><step>E</step><octave>5</octave></pitch><duration>32</duration><voice>1</voice><type>eighth</type></note><note><pitch><step>D</step><octave>5</octave></pitch><duration>64</duration><voice>1</voice><type>quarter</type></note><note><pitch><step>G</step><octave>5</octave></pitch><duration>64</duration><voice>1</voice><type>quarter</type></note><note><pitch><step>F</step><alter>1</alter><octave>5</octave></pitch><duration>64</duration><voice>1</voice><type>quarter</type></note><note><pitch><step>D</step><octave>5</octave></pitch><duration>32</duration><tie type="start"/><voice>1</voice><type>eighth</type><notations><tied type="start"/></notations></note></measure><measure number="32"><attributes/><note><pitch><step>D</step><octave>5</octave></pitch><duration>128</duration><tie type="stop"/><voice>1</voice><type>half</type><notations><tied type="stop"/></notations></note><note><rest/><duration>32</duration><voice>1</voice><type>eighth</type></note><note><pitch><step>B</step><octave>4</octave></pitch><duration>32</duration><voice>1</voice><type>eighth</type></note><note><pitch><step>C</step><octave>5</octave></pitch><duration>16</duration><voice>1</voice><type>16th</type><beam number="1">begin</beam></note><note><rest/><duration>16</duration><voice>1</voice><type>16th</type><beam number="1">continue</beam></note><note><pitch><step>D</step><octave>5</octave></pitch><duration>16</duration><voice>1</voice><type>16th</type><beam number="1">end</beam></note><note><rest/><duration>16</duration><voice>1</voice><type>16th</type></note></measure><measure number="33"><attributes/><note><pitch><step>E</step><octave>5</octave></pitch><duration>32</duration><voice>1</voice><type>eighth</type></note><note><pitch><step>D</step><octave>5</octave></pitch><duration>64</duration><voice>1</voice><type>quarter</type></note><note><pitch><step>G</step><octave>5</octave></pitch><duration>64</duration><voice>1</voice><type>quarter</type></note><note><pitch><step>A</step><octave>5</octave></pitch><duration>32</duration><voice>1</voice><type>eighth</type></note><note><pitch><step>G</step><octave>5</octave></pitch><duration>32</duration><voice>1</voice><type>eighth</type><beam number="1">begin</beam></note><note><pitch><step>C</step><alter>1</alter><octave>5</octave></pitch><duration>32</duration><tie type="start"/><voice>1</voice><type>eighth</type><beam number="1">end</beam><notations><tied type="start"/></notations></note></measure><measure number="34"><attributes/><note><pitch><step>C</step><alter>1</alter><octave>5</octave></pitch><duration>128</duration><tie type="stop"/><voice>1</voice><type>half</type><notations><tied type="stop"/></notations></note><note><rest/><duration>32</duration><voice>1</voice><type>eighth</type></note><note><pitch><step>A</step><octave>4</octave></pitch><duration>32</duration><voice>1</voice><type>eighth</type></note><note><pitch><step>E</step><octave>5</octave></pitch><duration>32</duration><voice>1</voice><type>eighth</type><beam number="1">begin</beam></note><note><pitch><step>D</step><octave>5</octave></pitch><duration>32</duration><voice>1</voice><type>eighth</type><beam number="1">end</beam></note></measure><measure number="35"><attributes/><note><pitch><step>C</step><octave>5</octave></pitch><duration>32</duration><voice>1</voice><type>eighth</type></note><note><pitch><step>B</step><octave>4</octave></pitch><duration>64</duration><voice>1</voice><type>quarter</type></note><note><pitch><step>G</step><octave>5</octave></pitch><duration>96</duration><voice>1</voice><type>quarter</type><dot/></note><note><rest/><duration>32</duration><voice>1</voice><type>eighth</type></note><note><pitch><step>G</step><octave>5</octave></pitch><duration>32</duration><voice>1</voice><type>eighth</type></note></measure><measure number="36"><attributes/><note><pitch><step>A</step><octave>5</octave></pitch><duration>64</duration><voice>1</voice><type>quarter</type></note><note><pitch><step>G</step><octave>5</octave></pitch><duration>64</duration><voice>1</voice><type>quarter</type></note><note><pitch><step>F</step><alter>1</alter><octave>5</octave></pitch><duration>32</duration><voice>1</voice><type>eighth</type><beam number="1">begin</beam></note><note><pitch><step>G</step><octave>5</octave></pitch><duration>16</duration><voice>1</voice><type>16th</type><beam number="1">end</beam></note><note><rest/><duration>16</duration><voice>1</voice><type>16th</type></note><note><pitch><step>A</step><octave>5</octave></pitch><duration>16</duration><voice>1</voice><type>16th</type><beam number="1">begin</beam></note><note><rest/><duration>16</duration><voice>1</voice><type>16th</type><beam number="1">continue</beam></note><note><pitch><step>G</step><octave>5</octave></pitch><duration>32</duration><tie type="start"/><voice>1</voice><type>eighth</type><beam number="1">end</beam><notations><tied type="start"/></notations></note></measure><measure number="37"><attributes/><note><pitch><step>G</step><octave>5</octave></pitch><duration>256</duration><tie type="start"/><tie type="stop"/><voice>1</voice><type>whole</type><notehead>normal</notehead><notations><tied type="start"/><tied type="stop"/></notations></note></measure><measure number="38"><attributes/><note><pitch><step>G</step><octave>5</octave></pitch><duration>64</duration><tie type="stop"/><voice>1</voice><type>quarter</type><notations><tied type="stop"/></notations></note><note><rest/><duration>128</duration><voice>1</voice><type>half</type></note><note><rest/><duration>64</duration><voice>1</voice><type>quarter</type></note></measure><measure number="39"><attributes/><note><rest/><duration>256</duration><voice>1</voice><type>whole</type></note></measure><measure number="40"><attributes/><note><rest/><duration>256</duration><voice>1</voice><type>whole</type></note></measure><measure number="41"><attributes/><note><rest/><duration>256</duration><voice>1</voice><type>whole</type></note></measure><measure number="42"><attributes/><note><rest/><duration>256</duration><voice>1</voice><type>whole</type></note></measure><measure number="43"><attributes/><note><rest/><duration>256</duration><voice>1</voice><type>whole</type></note></measure><measure number="44"><attributes/><note><rest/><duration>256</duration><voice>1</voice><type>whole</type></note></measure><measure number="45"><attributes/><note><rest/><duration>256</duration><voice>1</voice><type>whole</type></note></measure><measure number="46"><attributes/><note><rest/><duration>256</duration><voice>1</voice><type>whole</type></note></measure><measure number="47"><attributes/><note><rest/><duration>256</duration><voice>1</voice><type>whole</type></note></measure><measure number="48"><attributes/><note><rest/><duration>256</duration><voice>1</voice><type>whole</type></note></measure><measure number="49"><attributes/><note><rest/><duration>256</duration><voice>1</voice><type>whole</type></note></measure><measure number="50"><attributes/><note><rest/><duration>256</duration><voice>1</voice><type>whole</type></note></measure><measure number="51"><attributes/><note><rest/><duration>256</duration><voice>1</voice><type>whole</type></note></measure><measure number="52"><attributes/><note><rest/><duration>256</duration><voice>1</voice><type>whole</type></note></measure><measure number="53"><attributes/><note><rest/><duration>256</duration><voice>1</voice><type>whole</type></note></measure><measure number="54"><attributes/><note><rest/><duration>256</duration><voice>1</voice><type>whole</type></note></measure><measure number="55"><attributes/><note><rest/><duration>256</duration><voice>1</voice><type>whole</type></note></measure><measure number="56"><attributes/><note><rest/><duration>256</duration><voice>1</voice><type>whole</type></note></measure><measure number="57"><attributes/><note><rest/><duration>256</duration><voice>1</voice><type>whole</type></note></measure><measure number="58"><attributes/><note><rest/><duration>256</duration><voice>1</voice><type>whole</type></note></measure><measure number="59"><attributes/><note><rest/><duration>256</duration><voice>1</voice><type>whole</type></note></measure><measure number="60"><attributes/><note><rest/><duration>256</duration><voice>1</voice><type>whole</type></note></measure><measure number="61"><attributes/><note><rest/><duration>256</duration><voice>1</voice><type>whole</type></note></measure><measure number="62"><attributes/><note><rest/><duration>256</duration><voice>1</voice><type>whole</type></note></measure><measure number="63"><attributes/><note><rest/><duration>256</duration><voice>1</voice><type>whole</type></note></measure><measure number="64"><attributes/><note><rest/><duration>256</duration><voice>1</voice><type>whole</type></note></measure><measure number="65"><attributes/><note><rest/><duration>256</duration><voice>1</voice><type>whole</type></note></measure><measure number="66"><attributes/><note><rest/><duration>256</duration><voice>1</voice><type>whole</type></note></measure><measure number="67"><attributes/><note><rest/><duration>256</duration><voice>1</voice><type>whole</type></note></measure><measure number="68"><attributes/><note><rest/><duration>256</duration><voice>1</voice><type>whole</type></note></measure><measure number="69"><attributes/><note><rest/><duration>256</duration><voice>1</voice><type>whole</type></note></measure><measure number="70"><attributes/><note><rest/><duration>256</duration><voice>1</voice><type>whole</type></note></measure><measure number="71"><attributes/><note><rest/><duration>256</duration><voice>1</voice><type>whole</type></note></measure><measure number="72"><attributes/><note><rest/><duration>256</duration><voice>1</voice><type>whole</type></note></measure><measure number="73"><attributes/><note><rest/><duration>256</duration><voice>1</voice><type>whole</type></note></measure><measure number="74"><attributes/><note><rest/><duration>256</duration><voice>1</voice><type>whole</type></note></measure><measure number="75"><attributes/><note><rest/><duration>256</duration><voice>1</voice><type>whole</type></note></measure><measure number="76"><attributes/><note><rest/><duration>256</duration><voice>1</voice><type>whole</type></note></measure><measure number="77"><attributes/><note><rest/><duration>256</duration><voice>1</voice><type>whole</type></note></measure><measure number="78"><attributes/><note><rest/><duration>256</duration><voice>1</voice><type>whole</type></note></measure><measure number="79"><attributes/><note><rest/><duration>256</duration><voice>1</voice><type>whole</type></note></measure><measure number="80"><attributes/><note><rest/><duration>256</duration><voice>1</voice><type>whole</type></note></measure><measure number="81"><attributes/><note><rest/><duration>256</duration><voice>1</voice><type>whole</type></note></measure><measure number="82"><attributes/><note><rest/><duration>256</duration><voice>1</voice><type>whole</type></note></measure><measure number="83"><attributes/><note><rest/><duration>256</duration><voice>1</voice><type>whole</type></note></measure><measure number="84"><attributes/><note><rest/><duration>256</duration><voice>1</voice><type>whole</type></note></measure><measure number="85"><attributes/><note><rest/><duration>256</duration><voice>1</voice><type>whole</type></note></measure><measure number="86"><attributes/><note><rest/><duration>256</duration><voice>1</voice><type>whole</type></note></measure><measure number="87"><attributes/><note><rest/><duration>256</duration><voice>1</voice><type>whole</type></note></measure><measure number="88"><attributes/><note><rest/><duration>256</duration><voice>1</voice><type>whole</type></note></measure><measure number="89"><attributes/><note><rest/><duration>256</duration><voice>1</voice><type>whole</type></note></measure><measure number="90"><attributes/><note><rest/><duration>256</duration><voice>1</voice><type>whole</type></note></measure><measure number="91"><attributes/><note><rest/><duration>256</duration><voice>1</voice><type>whole</type></note></measure><measure number="92"><attributes/><note><rest/><duration>256</duration><voice>1</voice><type>whole</type></note></measure><measure number="93"><attributes/><note><rest/><duration>256</duration><voice>1</voice><type>whole</type></note></measure><measure number="94"><attributes/><note><rest/><duration>256</duration><voice>1</voice><type>whole</type></note></measure><measure number="95"><attributes/><note><rest/><duration>256</duration><voice>1</voice><type>whole</type></note></measure><measure number="96"><attributes/><note><rest/><duration>256</duration><voice>1</voice><type>whole</type></note></measure><measure number="97"><attributes/><note><rest/><duration>256</duration><voice>1</voice><type>whole</type></note></measure><measure number="98"><attributes/><note><rest/><duration>256</duration><voice>1</voice><type>whole</type></note></measure><measure number="99"><attributes/><note><rest/><duration>256</duration><voice>1</voice><type>whole</type></note></measure><measure number="100"><attributes/><note><rest/><duration>256</duration><voice>1</voice><type>whole</type></note></measure><measure number="101"><attributes/><note><rest/><duration>256</duration><voice>1</voice><type>whole</type></note></measure><measure number="102"><attributes/><note><rest/><duration>256</duration><voice>1</voice><type>whole</type></note></measure><measure number="103"><attributes/><note><rest/><duration>256</duration><voice>1</voice><type>whole</type></note></measure><measure number="104"><attributes/><note><rest/><duration>256</duration><voice>1</voice><type>whole</type></note></measure><measure number="105"><attributes/><note><rest/><duration>256</duration><voice>1</voice><type>whole</type></note></measure><measure number="106"><attributes/><note><rest/><duration>256</duration><voice>1</voice><type>whole</type></note></measure><measure number="107"><attributes/><note><rest/><duration>256</duration><voice>1</voice><type>whole</type></note></measure><measure number="108"><attributes/><note><rest/><duration>256</duration><voice>1</voice><type>whole</type></note></measure><measure number="109"><attributes/><note><rest/><duration>256</duration><voice>1</voice><type>whole</type></note></measure><measure number="110"><attributes/><note><rest/><duration>256</duration><voice>1</voice><type>whole</type></note></measure><measure number="111"><attributes/><note><rest/><duration>256</duration><voice>1</voice><type>whole</type></note></measure><measure number="112"><attributes/><note><rest/><duration>256</duration><voice>1</voice><type>whole</type></note></measure><measure number="113"><attributes/><note><rest/><duration>256</duration><voice>1</voice><type>whole</type></note></measure><measure number="114"><attributes/><note><rest/><duration>256</duration><voice>1</voice><type>whole</type></note></measure><measure number="115"><attributes/><note><rest/><duration>256</duration><voice>1</voice><type>whole</type></note></measure><measure number="116"><attributes/><note><rest/><duration>256</duration><voice>1</voice><type>whole</type></note></measure><measure number="117"><attributes/><note><rest/><duration>256</duration><voice>1</voice><type>whole</type></note></measure><measure number="118"><attributes/><note><rest/><duration>256</duration><voice>1</voice><type>whole</type></note></measure><measure number="119"><attributes/><note><rest/><duration>256</duration><voice>1</voice><type>whole</type></note></measure><measure number="120"><attributes/><note><rest/><duration>256</duration><voice>1</voice><type>whole</type></note></measure><measure number="121"><attributes/><note><rest/><duration>256</duration><voice>1</voice><type>whole</type></note></measure><measure number="122"><attributes/><note><rest/><duration>256</duration><voice>1</voice><type>whole</type></note></measure><measure number="123"><attributes/><note><rest/><duration>256</duration><voice>1</voice><type>whole</type></note></measure><measure number="124"><attributes/><note><rest/><duration>256</duration><voice>1</voice><type>whole</type></note></measure><measure number="125"><attributes/><note><rest/><duration>256</duration><voice>1</voice><type>whole</type></note></measure><measure number="126"><attributes/><note><rest/><duration>256</duration><voice>1</voice><type>whole</type></note></measure><measure number="127"><attributes/><note><rest/><duration>256</duration><voice>1</voice><type>whole</type></note></measure><measure number="128"><attributes/><note><rest/><duration>256</duration><voice>1</voice><type>whole</type></note></measure><measure number="129"><attributes/><note><rest/><duration>256</duration><voice>1</voice><type>whole</type></note></measure><measure number="130"><attributes/><note><rest/><duration>256</duration><voice>1</voice><type>whole</type></note></measure><measure number="131"><attributes/><note><rest/><duration>256</duration><voice>1</voice><type>whole</type></note></measure><measure number="132"><attributes/><note><rest/><duration>256</duration><voice>1</voice><type>whole</type></note></measure><measure number="133"><attributes/><note><rest/><duration>256</duration><voice>1</voice><type>whole</type></note></measure><measure number="134"><attributes/><note><rest/><duration>256</duration><voice>1</voice><type>whole</type></note></measure><measure number="135"><attributes/><note><rest/><duration>256</duration><voice>1</voice><type>whole</type></note></measure><measure number="136"><attributes/><note><rest/><duration>256</duration><voice>1</voice><type>whole</type></note></measure><measure number="137"><attributes/><note><rest/><duration>256</duration><voice>1</voice><type>whole</type></note></measure><measure number="138"><attributes/><note><rest/><duration>256</duration><voice>1</voice><type>whole</type></note></measure><measure number="139"><attributes/><note><rest/><duration>256</duration><voice>1</voice><type>whole</type></note></measure><measure number="140"><attributes/><note><rest/><duration>256</duration><voice>1</voice><type>whole</type></note></measure><measure number="141"><attributes/><note><rest/><duration>256</duration><voice>1</voice><type>whole</type></note></measure><measure number="142"><attributes/><note><rest/><duration>256</duration><voice>1</voice><type>whole</type></note></measure><measure number="143"><attributes/><note><rest/><duration>256</duration><voice>1</voice><type>whole</type></note></measure><measure number="144"><attributes/><note><rest/><duration>256</duration><voice>1</voice><type>whole</type></note></measure><measure number="145"><attributes/><note><rest/><duration>256</duration><voice>1</voice><type>whole</type></note></measure><measure number="146"><attributes/><note><rest/><duration>256</duration><voice>1</voice><type>whole</type></note></measure><measure number="147"><attributes/><note><rest/><duration>256</duration><voice>1</voice><type>whole</type></note></measure><measure number="148"><attributes/><note><rest/><duration>256</duration><voice>1</voice><type>whole</type></note></measure><measure number="149"><attributes/><note><rest/><duration>256</duration><voice>1</voice><type>whole</type></note></measure><measure number="150"><attributes/><note><rest/><duration>256</duration><voice>1</voice><type>whole</type></note></measure><measure number="151"><attributes/><note><rest/><duration>256</duration><voice>1</voice><type>whole</type></note></measure><measure number="152"><attributes/><note><rest/><duration>256</duration><voice>1</voice><type>whole</type></note></measure><measure number="153"><attributes/><note><rest/><duration>256</duration><voice>1</voice><type>whole</type></note></measure><measure number="154"><attributes/><note><rest/><duration>256</duration><voice>1</voice><type>whole</type></note></measure><measure number="155"><attributes/><note><rest/><duration>256</duration><voice>1</voice><type>whole</type></note></measure><measure number="156"><attributes/><note><rest/><duration>256</duration><voice>1</voice><type>whole</type></note></measure><measure number="157"><attributes/><note><rest/><duration>256</duration><voice>1</voice><type>whole</type></note></measure><measure number="158"><attributes/><note><rest/><duration>256</duration><voice>1</voice><type>whole</type></note></measure><measure number="159"><attributes/><note><rest/><duration>256</duration><voice>1</voice><type>whole</type></note></measure><measure number="160"><attributes/><note><rest/><duration>256</duration><voice>1</voice><type>whole</type></note></measure><measure number="161"><attributes/><note><rest/><duration>256</duration><voice>1</voice><type>whole</type></note></measure><measure number="162"><attributes/><note><rest/><duration>256</duration><voice>1</voice><type>whole</type></note></measure><measure number="163"><attributes/><note><rest/><duration>256</duration><voice>1</voice><type>whole</type></note></measure><measure number="164"><attributes/><note><rest/><duration>256</duration><voice>1</voice><type>whole</type></note></measure><measure number="165"><attributes/><note><rest/><duration>256</duration><voice>1</voice><type>whole</type></note></measure><measure number="166"><attributes/><note><rest/><duration>256</duration><voice>1</voice><type>whole</type></note></measure><measure number="167"><attributes/><note><rest/><duration>256</duration><voice>1</voice><type>whole</type></note></measure><measure number="168"><attributes/><note><rest/><duration>256</duration><voice>1</voice><type>whole</type></note></measure><measure number="169"><attributes/><note><rest/><duration>256</duration><voice>1</voice><type>whole</type></note></measure><measure number="170"><attributes/><note><rest/><duration>256</duration><voice>1</voice><type>whole</type></note></measure><measure number="171"><attributes/><note><rest/><duration>256</duration><voice>1</voice><type>whole</type></note></measure><measure number="172"><attributes/><note><rest/><duration>256</duration><voice>1</voice><type>whole</type></note></measure><measure number="173"><attributes/><note><rest/><duration>256</duration><voice>1</voice><type>whole</type></note></measure><measure number="174"><attributes/><note><rest/><duration>256</duration><voice>1</voice><type>whole</type></note></measure><measure number="175"><attributes/><note><rest/><duration>256</duration><voice>1</voice><type>whole</type></note></measure><measure number="176"><attributes/><note><rest/><duration>256</duration><voice>1</voice><type>whole</type></note></measure><measure number="177"><attributes/><note><rest/><duration>256</duration><voice>1</voice><type>whole</type></note></measure><measure number="178"><attributes/><note><rest/><duration>256</duration><voice>1</voice><type>whole</type></note></measure><measure number="179"><attributes/><note><rest/><duration>256</duration><voice>1</voice><type>whole</type></note></measure><measure number="180"><attributes/><note><rest/><duration>256</duration><voice>1</voice><type>whole</type></note></measure><measure number="181"><attributes/><note><rest/><duration>256</duration><voice>1</voice><type>whole</type></note></measure><measure number="182"><attributes/><note><rest/><duration>256</duration><voice>1</voice><type>whole</type></note></measure><measure number="183"><attributes/><note><rest/><duration>256</duration><voice>1</voice><type>whole</type></note><barline location="right"><bar-style>light-heavy</bar-style></barline></measure></part></score-partwise>